<svg version="1.1" xmlns="http://www.w3.org/2000/svg" xmlns:xlink="http://www.w3.org/1999/xlink" preserveAspectRatio="xMidYMid meet" viewBox="195.81319496181024 218.86468814328987 196.88556273850477 197.6498323286047"><defs><path d="M349.67 328.43C344.19 354.22 321.29 373.54 293.85 373.54C277.56 373.54 262.9 366.68 252.5 355.73C249.68 358.56 227.04 381.2 224.21 384.03C241.85 402.21 266.52 413.51 293.85 413.51C342.24 413.51 382.4 378.11 389.7 331.78C388.05 330.82 379.26 326.25 366.52 325.96C357.68 325.75 352.4 327.23 349.67 328.43Z" id="b170wzs2Vc"></path><linearGradient id="gradientcdb3lGLQb" gradientUnits="userSpaceOnUse" x1="224.21" y1="369.73" x2="389.7" y2="369.73"><stop style="stop-color: #27c469;stop-opacity: 1" offset="21.43%"></stop><stop style="stop-color:#27c469;stop-opacity: .8" offset="52.580000000000005%"></stop><stop style="stop-color:#27c469;stop-opacity: .6" offset="95.41%"></stop></linearGradient><path d="M292.61 219.86C292.61 224.79 292.61 250.33 292.61 259.85C324.18 259.85 349.72 285.39 349.72 316.92C349.72 321.04 349.26 325.08 348.44 328.91C348.45 328.91 348.46 328.9 348.47 328.9C344.76 342.73 332.66 353.6 311.64 354.34C318.74 366.3 334.73 369.73 345.05 369.73C366.21 369.73 384.12 354.1 388.37 332.21C388.39 332.22 388.44 332.25 388.46 332.26C389.28 327.26 389.7 322.15 389.7 316.92C389.7 263.31 346.25 219.86 292.61 219.86Z" id="b1eAGfWH5v"></path><linearGradient id="gradienta1VlHUW1gh" gradientUnits="userSpaceOnUse" x1="371.65" y1="337.05" x2="331.64" y2="297.03"><stop style="stop-color: #27c469;stop-opacity: 1" offset="9.69%"></stop><stop style="stop-color: #27c469;stop-opacity: 1" offset="95.41%"></stop></linearGradient><path d="M245.92 347.87C231.58 325.75 234.13 295.9 253.55 276.51C265.07 265 280.29 259.49 295.39 259.89C295.39 255.89 295.41 223.88 295.41 219.88C270.08 219.48 244.63 228.91 225.3 248.22C191.06 282.42 187.66 335.84 215.24 373.79C217.08 373.3 226.53 370.33 235.75 361.52C242.15 355.42 244.84 350.64 245.92 347.87Z" id="f9H1sdo00"></path><path d="M256.32 359.3C236.73 341.66 231.45 312.17 245.17 288.41C253.31 274.3 266.58 265.03 281.26 261.5C280.23 257.64 271.94 226.72 270.9 222.85C246.34 229.04 224.21 244.75 210.55 268.42C186.35 310.33 196.94 362.8 233.42 392.29C235.07 391.34 243.42 386.02 250.04 375.13C254.64 367.58 256 362.26 256.32 359.3Z" id="b4GIwGokFy"></path></defs><g><g><use xlink:href="#b170wzs2Vc" opacity="1" fill="url(#gradientcdb3lGLQb)"></use><g><use xlink:href="#b170wzs2Vc" opacity="1" fill-opacity="0" stroke="#000000" stroke-width="1" stroke-opacity="0"></use></g></g><g><use xlink:href="#b1eAGfWH5v" opacity="1" fill="url(#gradienta1VlHUW1gh)"></use><g><use xlink:href="#b1eAGfWH5v" opacity="1" fill-opacity="0" stroke="#000000" stroke-width="1" stroke-opacity="0"></use></g></g><g><use xlink:href="#f9H1sdo00" opacity="1" fill="#27c469" fill-opacity="1"></use><g><use xlink:href="#f9H1sdo00" opacity="1" fill-opacity="0" stroke="#000000" stroke-width="1" stroke-opacity="0"></use></g></g><g><use xlink:href="#b4GIwGokFy" opacity="1" fill="#27c469" fill-opacity="1"></use><g><use xlink:href="#b4GIwGokFy" opacity="1" fill-opacity="0" stroke="#000000" stroke-width="1" stroke-opacity="0"></use></g></g></g></svg>
